<svg xmlns="http://www.w3.org/2000/svg" version="1.1" xmlns:xlink="http://www.w3.org/1999/xlink" xmlns:svgjs="http://svgjs.dev/svgjs" width="1500" height="1500" viewBox="0 0 1500 1500"><rect width="1500" height="1500" fill="#000000"></rect><g transform="matrix(0.6666666666666666,0,0,0.6666666666666666,249.39393939393938,679.0740625279527)"><svg viewBox="0 0 396 56" data-background-color="#000000" preserveAspectRatio="xMidYMid meet" height="212" width="1500" xmlns="http://www.w3.org/2000/svg" xmlns:xlink="http://www.w3.org/1999/xlink"><g id="tight-bounds" transform="matrix(1,0,0,1,0.2400000000000091,0.10272994175460326)"><svg viewBox="0 0 395.52 55.79454011649077" height="55.79454011649077" width="395.52"><g><svg viewBox="0 0 502.5277211638984 70.88972263887494" height="55.79454011649077" width="395.52"><g><rect width="6.36110283160946" height="70.88972263887494" x="83.99451667886105" y="0" fill="#ffffff" opacity="1" stroke-width="0" stroke="transparent" fill-opacity="1" class="rect-yte-0" data-fill-palette-color="primary" rx="1%" id="yte-0" data-palette-color="#ffffff"></rect></g><g transform="matrix(1,0,0,1,107.00772116389841,0.17634259362903748)"><svg viewBox="0 0 395.52 70.53703745161687" height="70.53703745161687" width="395.52"><g id="textblocktransform"><svg viewBox="0 0 395.52 70.53703745161687" height="70.53703745161687" width="395.52" id="textblock"><g><svg viewBox="0 0 395.52 70.53703745161687" height="70.53703745161687" width="395.52"><g transform="matrix(1,0,0,1,0,0)"><svg width="395.52" viewBox="2.88 -32.03 235.73000000000002 42.040850697216996" height="70.53703745161687" data-palette-color="#ffffff"><path d="M24.39-29.52Q25.39-29.52 25.81-29.15 26.22-28.78 26.22-27.93L26.22-27.93 26.22-19.87Q26.22-19.02 25.81-18.65 25.39-18.29 24.39-18.29L24.39-18.29Q23.39-18.29 22.97-18.65 22.56-19.02 22.56-19.87L22.56-19.87Q22.56-21.53 21.81-22.9 21.07-24.27 19.53-25.09 17.99-25.9 15.72-25.9L15.72-25.9Q13.09-25.9 11.05-24.51 9.01-23.12 7.87-20.53 6.74-17.94 6.74-14.48L6.74-14.48Q6.74-11.01 7.81-8.44 8.89-5.86 10.86-4.47 12.84-3.08 15.48-3.08L15.48-3.08Q17.9-3.08 20.09-3.78 22.29-4.49 24.05-5.83L24.05-5.83Q24.46-6.18 24.95-6.18L24.95-6.18Q25.68-6.18 26.25-5.22L26.25-5.22Q26.68-4.49 26.68-3.93L26.68-3.93Q26.68-3.2 25.93-2.66L25.93-2.66Q23.66-1.07 20.98-0.27 18.31 0.54 15.48 0.54L15.48 0.54Q11.67 0.54 8.83-1.33 5.98-3.2 4.43-6.59 2.88-9.99 2.88-14.48L2.88-14.48Q2.88-18.95 4.47-22.35 6.05-25.76 8.92-27.64 11.79-29.52 15.48-29.52L15.48-29.52Q17.77-29.52 19.56-28.74 21.34-27.95 22.56-26.51L22.56-26.51 22.56-27.93Q22.56-28.78 22.97-29.15 23.39-29.52 24.39-29.52L24.39-29.52ZM44.97-23.1Q48.31-23.1 51-21.58 53.68-20.07 55.21-17.37 56.74-14.67 56.74-11.28L56.74-11.28Q56.74-7.89 55.21-5.19 53.68-2.49 51-0.98 48.31 0.54 44.97 0.54L44.97 0.54Q41.62 0.54 38.94-0.98 36.25-2.49 34.73-5.19 33.2-7.89 33.2-11.28L33.2-11.28Q33.2-14.67 34.73-17.37 36.25-20.07 38.94-21.58 41.62-23.1 44.97-23.1L44.97-23.1ZM44.97-19.48Q42.6-19.48 40.81-18.44 39.01-17.41 38.03-15.54 37.06-13.67 37.06-11.28L37.06-11.28Q37.06-8.89 38.03-7.02 39.01-5.15 40.81-4.11 42.6-3.08 44.97-3.08L44.97-3.08Q47.34-3.08 49.13-4.11 50.93-5.15 51.9-7.02 52.88-8.89 52.88-11.28L52.88-11.28Q52.88-13.67 51.9-15.54 50.93-17.41 49.13-18.44 47.34-19.48 44.97-19.48L44.97-19.48ZM75.58-32.03Q76.41-32.03 76.77-31.65 77.12-31.27 77.12-30.37L77.12-30.37 77.12-3.32 84.96-3.32Q85.79-3.32 86.14-2.94 86.49-2.56 86.49-1.66L86.49-1.66Q86.49-0.76 86.14-0.38 85.79 0 84.96 0L84.96 0 65.82 0Q64.99 0 64.63-0.38 64.28-0.76 64.28-1.66L64.28-1.66Q64.28-2.56 64.63-2.94 64.99-3.32 65.82-3.32L65.82-3.32 73.46-3.32 73.46-28.71 66.79-28.71Q65.96-28.71 65.61-29.09 65.25-29.47 65.25-30.37L65.25-30.37Q65.25-31.27 65.61-31.65 65.96-32.03 66.79-32.03L66.79-32.03 75.58-32.03ZM105.56-32.03Q106.39-32.03 106.74-31.65 107.1-31.27 107.1-30.37L107.1-30.37 107.1-3.32 114.93-3.32Q115.76-3.32 116.12-2.94 116.47-2.56 116.47-1.66L116.47-1.66Q116.47-0.76 116.12-0.38 115.76 0 114.93 0L114.93 0 95.79 0Q94.96 0 94.61-0.38 94.26-0.76 94.26-1.66L94.26-1.66Q94.26-2.56 94.61-2.94 94.96-3.32 95.79-3.32L95.79-3.32 103.43-3.32 103.43-28.71 96.77-28.71Q95.94-28.71 95.59-29.09 95.23-29.47 95.23-30.37L95.23-30.37Q95.23-31.27 95.59-31.65 95.94-32.03 96.77-32.03L96.77-32.03 105.56-32.03ZM134.9-23.1Q138.25-23.1 140.93-21.58 143.62-20.07 145.14-17.37 146.67-14.67 146.67-11.28L146.67-11.28Q146.67-7.89 145.14-5.19 143.62-2.49 140.93-0.98 138.25 0.54 134.9 0.54L134.9 0.54Q131.56 0.54 128.87-0.98 126.19-2.49 124.66-5.19 123.13-7.89 123.13-11.28L123.13-11.28Q123.13-14.67 124.66-17.37 126.19-20.07 128.87-21.58 131.56-23.1 134.9-23.1L134.9-23.1ZM134.9-19.48Q132.53-19.48 130.74-18.44 128.95-17.41 127.97-15.54 126.99-13.67 126.99-11.28L126.99-11.28Q126.99-8.89 127.97-7.02 128.95-5.15 130.74-4.11 132.53-3.08 134.9-3.08L134.9-3.08Q137.27-3.08 139.06-4.11 140.86-5.15 141.84-7.02 142.81-8.89 142.81-11.28L142.81-11.28Q142.81-13.67 141.84-15.54 140.86-17.41 139.06-18.44 137.27-19.48 134.9-19.48L134.9-19.48ZM163.54-23.1Q165.93-23.1 167.96-22.02 169.98-20.95 171.52-18.95L171.52-18.95 171.52-20.9Q171.52-21.8 171.87-22.18 172.23-22.56 173.06-22.56L173.06-22.56 176.94-22.56Q177.77-22.56 178.12-22.18 178.48-21.8 178.48-20.9L178.48-20.9Q178.48-20 178.12-19.62 177.77-19.24 176.94-19.24L176.94-19.24 174.94-19.24 174.94 6.15 177.43 6.15Q178.26 6.15 178.61 6.53 178.97 6.91 178.97 7.81L178.97 7.81Q178.97 8.72 178.61 9.09 178.26 9.47 177.43 9.47L177.43 9.47 167.08 9.47Q166.25 9.47 165.89 9.09 165.54 8.72 165.54 7.81L165.54 7.81Q165.54 6.91 165.89 6.53 166.25 6.15 167.08 6.15L167.08 6.15 171.28 6.15 171.28-3.49Q168.13 0.54 163.54 0.54L163.54 0.54Q160.51 0.54 158.12-0.89 155.72-2.32 154.36-4.99 152.99-7.67 152.99-11.28L152.99-11.28Q152.99-14.89 154.36-17.57 155.72-20.24 158.12-21.67 160.51-23.1 163.54-23.1L163.54-23.1ZM163.78-19.48Q161.61-19.48 160.05-18.44 158.48-17.41 157.67-15.55 156.85-13.7 156.85-11.28L156.85-11.28Q156.85-8.86 157.67-7.01 158.48-5.15 160.05-4.11 161.61-3.08 163.78-3.08L163.78-3.08Q165.95-3.08 167.65-4.05 169.35-5.03 170.31-6.88 171.28-8.74 171.28-11.28L171.28-11.28Q171.28-13.82 170.31-15.67 169.35-17.53 167.65-18.51 165.95-19.48 163.78-19.48L163.78-19.48ZM202.72-22.56Q203.55-22.56 203.9-22.18 204.26-21.8 204.26-20.9L204.26-20.9 204.26-3.32 206.26-3.32Q207.09-3.32 207.44-2.94 207.8-2.56 207.8-1.66L207.8-1.66Q207.8-0.76 207.44-0.38 207.09 0 206.26 0L206.26 0 202.38 0Q201.55 0 201.19-0.37 200.84-0.73 200.84-1.64L200.84-1.64 200.84-4.59Q199.23-2.1 197.07-0.78 194.91 0.54 192.42 0.54L192.42 0.54Q190.19 0.54 188.56-0.43 186.92-1.39 186.04-3.2 185.17-5 185.17-7.42L185.17-7.42 185.17-19.24 183.16-19.24Q182.33-19.24 181.98-19.62 181.63-20 181.63-20.9L181.63-20.9Q181.63-21.8 181.98-22.18 182.33-22.56 183.16-22.56L183.16-22.56 187.29-22.56Q188.12-22.56 188.47-22.18 188.83-21.8 188.83-20.9L188.83-20.9 188.83-7.79Q188.83-5.62 189.83-4.35 190.83-3.08 192.78-3.08L192.78-3.08Q194.86-3.08 196.65-4.27 198.45-5.47 199.52-7.57 200.6-9.67 200.6-12.26L200.6-12.26 200.6-19.24 197.13-19.24Q196.3-19.24 195.94-19.62 195.59-20 195.59-20.9L195.59-20.9Q195.59-21.8 195.94-22.18 196.3-22.56 197.13-22.56L197.13-22.56 202.72-22.56ZM237.07-22.56Q237.9-22.56 238.25-22.18 238.61-21.8 238.61-20.9L238.61-20.9Q238.61-20 238.25-19.62 237.9-19.24 237.07-19.24L237.07-19.24 235.55-19.24 225.57 1.22Q223.98 4.47 222.47 6.32 220.95 8.18 219.06 9.05 217.17 9.91 214.46 10.01L214.46 10.01Q213.61 10.03 213.14 9.58 212.68 9.13 212.68 7.98L212.68 7.98Q212.68 6.4 213.97 6.32L213.97 6.32Q216.32 6.2 217.69 5.54 219.07 4.88 220.23 3.28 221.39 1.68 223.08-1.71L223.08-1.71 214.14-19.24 212.6-19.24Q211.77-19.24 211.42-19.62 211.07-20 211.07-20.9L211.07-20.9Q211.07-21.8 211.42-22.18 211.77-22.56 212.6-22.56L212.6-22.56 221.25-22.56Q222.08-22.56 222.43-22.18 222.79-21.8 222.79-20.9L222.79-20.9Q222.79-20 222.43-19.62 222.08-19.24 221.25-19.24L221.25-19.24 218.12-19.24 225.01-5.52 231.57-19.24 229.4-19.24Q228.57-19.24 228.22-19.62 227.86-20 227.86-20.9L227.86-20.9Q227.86-21.8 228.22-22.18 228.57-22.56 229.4-22.56L229.4-22.56 237.07-22.56Z" opacity="1" transform="matrix(1,0,0,1,0,0)" fill="#ffffff" class="wordmark-text-0" data-fill-palette-color="primary" id="text-0"></path></svg></g></svg></g></svg></g></svg></g><g transform="matrix(1,0,0,1,0,0.17634259362903748)"><svg viewBox="0 0 67.34241502543314 70.53703745161687" height="70.53703745161687" width="67.34241502543314"><g><svg version="1.0" xmlns="http://www.w3.org/2000/svg" xmlns:xlink="http://www.w3.org/1999/xlink" x="0" y="0" viewBox="0 0 95.471 100" enable-background="new 0 0 95.471 100" xml:space="preserve" id="icon-0" width="67.34241502543314" height="70.53703745161687" class="icon-icon-0" data-fill-palette-color="accent"><path d="M47.735 0C47.652 2.825 45.997 13.412 27.936 30.934 10.554 47.797 2.439 49.824 0 50 2.439 50.178 10.554 52.204 27.936 69.066 45.997 86.589 47.652 97.177 47.735 100 47.818 97.177 49.474 86.589 67.533 69.066 84.917 52.204 93.031 50.178 95.471 50 93.032 49.824 84.917 47.797 67.533 30.934 49.475 13.412 47.819 2.825 47.735 0" fill="#ffffff" data-fill-palette-color="accent"></path></svg></g></svg></g></svg></g><defs></defs></svg><rect width="395.52" height="55.79454011649077" fill="none" stroke="none" visibility="hidden"></rect></g></svg></g></svg>